<svg xmlns="http://www.w3.org/2000/svg" width="712" height="271" viewBox="0 0 712 271"><defs><style>.cls-1{fill:#ff5115;fill-rule:evenodd}</style></defs><path class="cls-1" d="M347.422 163.236s-60.276-.135-63.753-.113c-6.01.037-6.847-4.26-6.847-4.26L274.835 145l50.81.3a9.27 9.27 0 0 0 0-18.54l-53.472-.3-6.81-41.015a.152.152 0 0 0 0-.04 12.487 12.487 0 0 0 7.79-13.12L269.5 43.45a12.61 12.61 0 0 0-14.1-10.87l-10.526 2.174c-7.01 1.046-8.874 7.446-8.652 14.473l.958 34.673 19.27 101.493c.856 6.31 4.73 10.48 10.564 10.48h4.895l-7.653 24.527-.146.587a15.035 15.035 0 0 0 3.418 12.283 16.53 16.53 0 0 0 12.52 6.15h51.212a16.746 16.746 0 0 0 13-6.906 15.264 15.264 0 0 0 2.74-13.276l-5.566-23.37h3.734c5.834 0 8.952-4.924 10.565-10.48l4.045-12.52c1.222-5.832-.04-9.933-12.356-9.632zM336.11 226.36a6.62 6.62 0 0 1-4.85 2.81h-51.21a6.37 6.37 0 0 1-4.68-2.443 4.96 4.96 0 0 1-1.283-3.607l8.5-27.252h48.505l6.06 25.994a5.217 5.217 0 0 1-1.042 4.497zm125.936-63.124s-60.275-.135-63.75-.113c-6.01.037-6.848-4.26-6.848-4.26L389.46 145l50.81.3a9.27 9.27 0 0 0 0-18.54l-53.472-.3-4.418-26.61a34.272 34.272 0 0 1 1.282-58.4 12.6 12.6 0 0 0-13.638-8.873L359.5 34.754c-7.01 1.04-8.874 7.448-8.65 14.473l.956 34.673 19.268 101.493c.857 6.31 4.732 10.48 10.565 10.48h4.894L378.88 220.4l-.144.587a15.035 15.035 0 0 0 3.417 12.283 16.53 16.53 0 0 0 12.52 6.15h51.212a16.75 16.75 0 0 0 13-6.906 15.267 15.267 0 0 0 2.74-13.28l-5.567-23.37h3.735c5.833 0 8.952-4.923 10.564-10.48l4.044-12.52c1.225-5.828-.036-9.93-12.354-9.628zm-11.31 63.123a6.625 6.625 0 0 1-4.85 2.81h-51.212a6.375 6.375 0 0 1-4.68-2.443 4.954 4.954 0 0 1-1.28-3.607l8.5-27.252h48.505l6.058 25.994a5.22 5.22 0 0 1-1.042 4.497zM400.7 42.22a28.338 28.338 0 0 0-16.095 5 28.858 28.858 0 0 0-3.53 44.757 28.41 28.41 0 0 0 19.625 7.89 28.824 28.824 0 0 0 0-57.648zm15.32 18.557l-14.877 24.434a3.7 3.7 0 0 1-5.1 1.233l-10.96-6.757a3.748 3.748 0 0 1-1.225-5.135 3.7 3.7 0 0 1 5.1-1.234l7.8 4.806 12.933-21.25a3.7 3.7 0 0 1 5.1-1.233 3.75 3.75 0 0 1 1.227 5.136z"/></svg>